<mxfile host="app.diagrams.net" modified="2024-01-07T17:24:17.995Z" agent="Mozilla/5.0 (Windows NT 10.0; Win64; x64) AppleWebKit/537.36 (KHTML, like Gecko) Chrome/120.0.0.0 Safari/537.36" etag="oN4lqjiZuYjE8FN1CYtz" version="22.1.17" type="device">
  <diagram name="Page-1" id="gK5HmYNlsJiF3yvIXfuO">
    <mxGraphModel dx="1290" dy="530" grid="1" gridSize="10" guides="1" tooltips="1" connect="1" arrows="1" fold="1" page="1" pageScale="1" pageWidth="827" pageHeight="1169" math="0" shadow="0">
      <root>
        <mxCell id="0" />
        <mxCell id="1" parent="0" />
        <mxCell id="zODhvOu5re7cC0Qfkqh8-1" value="Actor:&lt;br&gt;User" style="shape=umlActor;verticalLabelPosition=bottom;verticalAlign=top;html=1;outlineConnect=0;" parent="1" vertex="1">
          <mxGeometry x="10" y="20" width="30" height="60" as="geometry" />
        </mxCell>
        <mxCell id="zODhvOu5re7cC0Qfkqh8-2" value="" style="endArrow=none;dashed=1;html=1;rounded=0;" parent="1" edge="1">
          <mxGeometry width="50" height="50" relative="1" as="geometry">
            <mxPoint x="20" y="400" as="sourcePoint" />
            <mxPoint x="20" y="120" as="targetPoint" />
          </mxGeometry>
        </mxCell>
        <mxCell id="zODhvOu5re7cC0Qfkqh8-3" value="f: FrmOurRooms" style="rounded=0;whiteSpace=wrap;html=1;" parent="1" vertex="1">
          <mxGeometry x="160" y="40" width="100" height="40" as="geometry" />
        </mxCell>
        <mxCell id="zODhvOu5re7cC0Qfkqh8-4" value="" style="endArrow=none;dashed=1;html=1;rounded=0;entryX=0.5;entryY=1;entryDx=0;entryDy=0;" parent="1" target="zODhvOu5re7cC0Qfkqh8-3" edge="1">
          <mxGeometry width="50" height="50" relative="1" as="geometry">
            <mxPoint x="210" y="400" as="sourcePoint" />
            <mxPoint x="440" y="250" as="targetPoint" />
          </mxGeometry>
        </mxCell>
        <mxCell id="zODhvOu5re7cC0Qfkqh8-5" value="" style="endArrow=classic;html=1;rounded=0;" parent="1" edge="1">
          <mxGeometry width="50" height="50" relative="1" as="geometry">
            <mxPoint x="20" y="130" as="sourcePoint" />
            <mxPoint x="210" y="130" as="targetPoint" />
          </mxGeometry>
        </mxCell>
        <mxCell id="zODhvOu5re7cC0Qfkqh8-6" value="Start()" style="edgeLabel;html=1;align=center;verticalAlign=middle;resizable=0;points=[];" parent="zODhvOu5re7cC0Qfkqh8-5" vertex="1" connectable="0">
          <mxGeometry x="0.04" y="-3" relative="1" as="geometry">
            <mxPoint y="-13" as="offset" />
          </mxGeometry>
        </mxCell>
        <mxCell id="zODhvOu5re7cC0Qfkqh8-7" value="k1:&amp;nbsp;RoomsAndReservationController" style="rounded=0;whiteSpace=wrap;html=1;" parent="1" vertex="1">
          <mxGeometry x="320" y="140" width="200" height="40" as="geometry" />
        </mxCell>
        <mxCell id="zODhvOu5re7cC0Qfkqh8-8" value="New()" style="endArrow=open;endSize=12;dashed=1;html=1;rounded=0;" parent="1" edge="1">
          <mxGeometry x="-0.0909" y="10" width="160" relative="1" as="geometry">
            <mxPoint x="210" y="159.5" as="sourcePoint" />
            <mxPoint x="320" y="159.5" as="targetPoint" />
            <mxPoint as="offset" />
          </mxGeometry>
        </mxCell>
        <mxCell id="zODhvOu5re7cC0Qfkqh8-9" value="b: Broker" style="rounded=0;whiteSpace=wrap;html=1;" parent="1" vertex="1">
          <mxGeometry x="900" y="140" width="80" height="40" as="geometry" />
        </mxCell>
        <mxCell id="zODhvOu5re7cC0Qfkqh8-10" value="New()" style="endArrow=open;endSize=12;dashed=1;html=1;rounded=0;exitX=1;exitY=0.5;exitDx=0;exitDy=0;entryX=0;entryY=0.5;entryDx=0;entryDy=0;" parent="1" source="zODhvOu5re7cC0Qfkqh8-7" target="zODhvOu5re7cC0Qfkqh8-9" edge="1">
          <mxGeometry x="-0.0909" y="10" width="160" relative="1" as="geometry">
            <mxPoint x="560" y="130" as="sourcePoint" />
            <mxPoint x="670" y="130" as="targetPoint" />
            <mxPoint as="offset" />
          </mxGeometry>
        </mxCell>
        <mxCell id="zODhvOu5re7cC0Qfkqh8-11" value="" style="endArrow=none;dashed=1;html=1;rounded=0;entryX=0.5;entryY=1;entryDx=0;entryDy=0;" parent="1" target="zODhvOu5re7cC0Qfkqh8-9" edge="1">
          <mxGeometry width="50" height="50" relative="1" as="geometry">
            <mxPoint x="940" y="400" as="sourcePoint" />
            <mxPoint x="220" y="90" as="targetPoint" />
          </mxGeometry>
        </mxCell>
        <mxCell id="zODhvOu5re7cC0Qfkqh8-12" value="" style="endArrow=none;dashed=1;html=1;rounded=0;" parent="1" edge="1">
          <mxGeometry width="50" height="50" relative="1" as="geometry">
            <mxPoint x="420" y="400" as="sourcePoint" />
            <mxPoint x="419.5" y="180" as="targetPoint" />
          </mxGeometry>
        </mxCell>
        <mxCell id="zODhvOu5re7cC0Qfkqh8-13" value="" style="endArrow=classic;html=1;rounded=0;" parent="1" edge="1">
          <mxGeometry width="50" height="50" relative="1" as="geometry">
            <mxPoint x="210" y="220" as="sourcePoint" />
            <mxPoint x="420" y="220" as="targetPoint" />
          </mxGeometry>
        </mxCell>
        <mxCell id="zODhvOu5re7cC0Qfkqh8-14" value="RSRooms = GetAllRooms()" style="edgeLabel;html=1;align=center;verticalAlign=middle;resizable=0;points=[];" parent="zODhvOu5re7cC0Qfkqh8-13" vertex="1" connectable="0">
          <mxGeometry x="0.2248" y="2" relative="1" as="geometry">
            <mxPoint x="-29" y="-8" as="offset" />
          </mxGeometry>
        </mxCell>
        <mxCell id="zODhvOu5re7cC0Qfkqh8-17" value="" style="endArrow=classic;html=1;rounded=0;" parent="1" edge="1">
          <mxGeometry width="50" height="50" relative="1" as="geometry">
            <mxPoint x="420" y="230" as="sourcePoint" />
            <mxPoint x="940" y="230" as="targetPoint" />
          </mxGeometry>
        </mxCell>
        <mxCell id="zODhvOu5re7cC0Qfkqh8-18" value="RSRooms = GetAllRooms()" style="edgeLabel;html=1;align=center;verticalAlign=middle;resizable=0;points=[];" parent="zODhvOu5re7cC0Qfkqh8-17" vertex="1" connectable="0">
          <mxGeometry x="0.2248" y="2" relative="1" as="geometry">
            <mxPoint x="-88" y="-8" as="offset" />
          </mxGeometry>
        </mxCell>
        <mxCell id="zODhvOu5re7cC0Qfkqh8-30" value="" style="endArrow=classic;html=1;rounded=0;" parent="1" edge="1">
          <mxGeometry width="50" height="50" relative="1" as="geometry">
            <mxPoint x="20" y="280" as="sourcePoint" />
            <mxPoint x="210" y="280" as="targetPoint" />
          </mxGeometry>
        </mxCell>
        <mxCell id="zODhvOu5re7cC0Qfkqh8-35" value="handleSubmit()" style="edgeLabel;html=1;align=center;verticalAlign=middle;resizable=0;points=[];" parent="zODhvOu5re7cC0Qfkqh8-30" vertex="1" connectable="0">
          <mxGeometry x="0.0316" relative="1" as="geometry">
            <mxPoint y="-10" as="offset" />
          </mxGeometry>
        </mxCell>
        <mxCell id="zODhvOu5re7cC0Qfkqh8-33" value="" style="endArrow=classic;html=1;rounded=0;" parent="1" edge="1">
          <mxGeometry width="50" height="50" relative="1" as="geometry">
            <mxPoint x="210" y="290" as="sourcePoint" />
            <mxPoint x="420" y="290" as="targetPoint" />
          </mxGeometry>
        </mxCell>
        <mxCell id="zODhvOu5re7cC0Qfkqh8-34" value="MakeReservation()" style="edgeLabel;html=1;align=center;verticalAlign=middle;resizable=0;points=[];" parent="zODhvOu5re7cC0Qfkqh8-33" vertex="1" connectable="0">
          <mxGeometry x="-0.0316" y="5" relative="1" as="geometry">
            <mxPoint y="-5" as="offset" />
          </mxGeometry>
        </mxCell>
        <mxCell id="zODhvOu5re7cC0Qfkqh8-36" value="New()" style="endArrow=open;endSize=12;dashed=1;html=1;rounded=0;entryX=0;entryY=0.5;entryDx=0;entryDy=0;" parent="1" target="zODhvOu5re7cC0Qfkqh8-37" edge="1">
          <mxGeometry x="-0.0909" y="10" width="160" relative="1" as="geometry">
            <mxPoint x="420" y="300" as="sourcePoint" />
            <mxPoint x="830" y="300" as="targetPoint" />
            <mxPoint as="offset" />
          </mxGeometry>
        </mxCell>
        <mxCell id="zODhvOu5re7cC0Qfkqh8-37" value="rdc:&amp;nbsp;ReservationDataConvert" style="rounded=0;whiteSpace=wrap;html=1;" parent="1" vertex="1">
          <mxGeometry x="740" y="280" width="170" height="40" as="geometry" />
        </mxCell>
        <mxCell id="zODhvOu5re7cC0Qfkqh8-39" value="" style="endArrow=classic;html=1;rounded=0;" parent="1" edge="1">
          <mxGeometry width="50" height="50" relative="1" as="geometry">
            <mxPoint x="420" y="350" as="sourcePoint" />
            <mxPoint x="940" y="350" as="targetPoint" />
          </mxGeometry>
        </mxCell>
        <mxCell id="zODhvOu5re7cC0Qfkqh8-40" value="MakeReservation(rdc)" style="edgeLabel;html=1;align=center;verticalAlign=middle;resizable=0;points=[];" parent="zODhvOu5re7cC0Qfkqh8-39" vertex="1" connectable="0">
          <mxGeometry x="-0.0316" y="5" relative="1" as="geometry">
            <mxPoint y="-5" as="offset" />
          </mxGeometry>
        </mxCell>
        <mxCell id="8i08_DUAdK8MHzcCfiOD-1" value="" style="endArrow=none;dashed=1;html=1;rounded=0;entryX=0.5;entryY=1;entryDx=0;entryDy=0;" parent="1" target="zODhvOu5re7cC0Qfkqh8-37" edge="1">
          <mxGeometry width="50" height="50" relative="1" as="geometry">
            <mxPoint x="825" y="400" as="sourcePoint" />
            <mxPoint x="220" y="90" as="targetPoint" />
          </mxGeometry>
        </mxCell>
      </root>
    </mxGraphModel>
  </diagram>
</mxfile>
